#!OML:ASF F:\VICON\USERDATA\INSTALL\Justin_Nancy\Justin_Nancy.ASF
:FULLY-SPECIFIED
:DEGREES
143
root 3.45152 17.2753 0.451907 -4.22647 -39.0394 8.42643
lowerback 8.48319 -0.641716 -4.77062
upperback 0.014655 -1.25267 1.62256
thorax -4.61119 -0.49624 4.53917
lowerneck -15.0655 -2.93967 -10.7142
upperneck 21.6193 -2.486 4.17124
head 9.52105 -1.61494 2.91432
rclavicle 8.95525e-014 -6.36111e-015
rhumerus -41.7037 -19.5155 -70.4788
rradius 29.1086
rwrist 7.02571
rhand -14.1193 11.602
rfingers 7.12502
rthumb 12.0141 -18.0332
lclavicle 8.95525e-014 -6.36111e-015
lhumerus -26.4677 11.638 82.6998
lradius 24.0887
lwrist -11.7389
lhand -12.9393 27.7174
lfingers 7.12502
lthumb 13.1517 57.2826
rfemur -34.5944 -3.17799 17.8885
rtibia 52.0047
rfoot -9.40497 -2.74778
rtoes -2.23488
lfemur -5.22772 -3.39094 -28.6867
ltibia 29.3583
lfoot -18.8064 2.72259
ltoes -1.2172
144
root 3.31597 17.2709 0.636531 -4.19379 -38.7345 8.84629
lowerback 8.23397 -0.694857 -5.12528
upperback 0.00476114 -1.35116 1.50144
thorax -4.46554 -0.542541 4.61782
lowerneck -15.918 -2.87237 -9.71954
upperneck 21.9193 -2.46015 3.78881
head 9.76175 -1.56067 2.61784
rclavicle 4.81059e-014 -1.11319e-014
rhumerus -41.6612 -20.522 -70.1009
rradius 28.5794
rwrist 7.91626
rhand -14.4408 11.1788
rfingers 7.12502
rthumb 11.704 -18.4742
lclavicle 4.81059e-014 -1.11319e-014
lhumerus -25.9631 10.6718 82.998
lradius 24.7391
lwrist -11.2068
lhand -13.1022 27.5749
lfingers 7.12502
lthumb 12.9947 57.1501
rfemur -35.2415 -3.03022 17.4484
rtibia 49.0366
rfoot -8.96401 -5.57218
rtoes -7.63561
lfemur -4.09378 -3.33609 -29.1623
ltibia 28.2873
lfoot -18.7512 2.59084
ltoes -1.132
145
root 3.18187 17.2585 0.823798 -4.83098 -38.3089 10.1499
lowerback 8.15953 -0.77491 -6.16063
upperback 0.0169514 -1.56721 1.1676
thorax -4.36943 -0.634011 4.87543
lowerneck -18.2612 -3.37329 -9.10828
upperneck 22.8671 -3.11196 3.85181
head 10.5829 -1.79398 2.44435
rclavicle -1.6201e-014 4.13472e-014
rhumerus -41.5253 -21.3131 -69.9021
rradius 28.1364
rwrist 8.81808
rhand -14.0523 11.3514
rfingers 7.12502
rthumb 12.0787 -18.28
lclavicle -1.6201e-014 4.13472e-014
lhumerus -25.6076 10.0741 83.0672
lradius 25.5832
lwrist -10.9643
lhand -12.9906 27.9857
lfingers 7.12502
lthumb 13.1023 57.5541
rfemur -35.6251 -3.05084 16.1219
rtibia 45.8921
rfoot -8.02987 -6.51571
rtoes -9.23622
lfemur -2.76303 -2.76606 -30.336
ltibia 27.0931
lfoot -18.7966 2.21162
ltoes -2.30015
146
root 3.04298 17.2525 1.01342 -5.20955 -38.0425 10.8619
lowerback 8.19756 -0.889257 -6.81063
upperback -0.0278685 -1.79041 1.05962
thorax -4.39446 -0.729471 5.15679
lowerneck -18.7331 -3.42105 -9.10782
upperneck 22.9303 -3.17353 4.01961
head 10.7026 -1.79684 2.49376
rclavicle -7.64327e-014 -1.11319e-014
rhumerus -41.508 -21.3124 -69.8855
rradius 27.8722
rwrist 9.46101
rhand -13.5072 11.871
rfingers 7.12502
rthumb 12.6042 -17.7287
lclavicle -7.64327e-014 -1.11319e-014
lhumerus -25.5905 9.68434 83.1302
lradius 26.5091
lwrist -10.6665
lhand -13.1633 27.7503
lfingers 7.12502
lthumb 12.9358 57.3294
rfemur -35.7172 -3.21635 15.4114
rtibia 42.501
rfoot -6.59432 -6.59843
rtoes -9.46588
lfemur -1.24993 -2.24268 -30.979
ltibia 25.8489
lfoot -18.8834 2.07217
ltoes -4.25577
147
root 2.90121 17.2525 1.19507 -4.92367 -37.9867 10.6893
lowerback 8.09171 -0.905087 -6.73631
upperback -0.0549776 -1.79528 1.10378
thorax -4.36333 -0.733458 5.15887
lowerneck -15.2603 -2.83072 -10.0066
upperneck 21.0538 -2.48555 4.22338
head 9.34459 -1.53307 2.80814
rclavicle 6.22196e-014 3.02153e-014
rhumerus -41.5611 -21.4727 -69.8768
rradius 27.7206
rwrist 9.68763
rhand -13.5243 11.8623
rfingers 7.12502
rthumb 12.5878 -17.7385
lclavicle 6.22196e-014 3.02153e-014
lhumerus -25.309 8.77966 83.3087
lradius 27.214
lwrist -10.2206
lhand -13.3341 27.5289
lfingers 7.12502
lthumb 12.7712 57.1183
rfemur -35.8845 -2.89793 15.4508
rtibia 38.9255
rfoot -5.11908 -7.20673
rtoes -7.6098
lfemur 0.102382 -2.19813 -30.8729
ltibia 24.5178
lfoot -18.7191 2.21402
ltoes -4.82236
148
root 2.75703 17.2409 1.37514 -4.66645 -37.9771 10.5915
lowerback 7.98974 -0.861071 -6.7743
upperback -0.0616016 -1.73126 1.14031
thorax -4.31957 -0.70204 5.20889
lowerneck -15.6484 -2.98876 -10.2385
upperneck 21.1105 -2.68337 4.57268
head 9.45972 -1.60127 2.94279
rclavicle -2.19657e-014 1.11319e-014
rhumerus -41.5141 -22.1973 -69.6263
rradius 27.279
rwrist 10.4387
rhand -13.8367 11.8209
rfingers 7.12502
rthumb 12.2865 -17.7981
lclavicle -2.19657e-014 1.11319e-014
lhumerus -24.8124 7.77655 83.5232
lradius 27.7124
lwrist -9.87739
lhand -13.3293 27.8669
lfingers 7.12502
lthumb 12.7758 57.456
rfemur -35.8622 -2.03176 15.2056
rtibia 35.1688
rfoot -3.76006 -8.20005
rtoes -3.4279
lfemur 1.3455 -2.05987 -30.7689
ltibia 23.2721
lfoot -18.4716 2.03627
ltoes -4.68375
149
root 2.60668 17.232 1.56168 -4.96521 -37.6718 11.1081
lowerback 7.9992 -0.937507 -7.33143
upperback -0.0917686 -1.89077 1.05804
thorax -4.32093 -0.768996 5.45596
lowerneck -15.3919 -2.93787 -10.1774
upperneck 20.9379 -2.67495 4.66181
head 9.35025 -1.58203 2.964
rclavicle -3.18055e-015 1.59028e-014
rhumerus -41.6007 -22.393 -69.5577
rradius 27.0603
rwrist 11.1839
rhand -14.1181 11.2938
rfingers 7.12502
rthumb 12.0152 -18.3413
lclavicle -3.18055e-015 1.59028e-014
lhumerus -24.6088 7.10789 83.6077
lradius 28.3395
lwrist -9.35323
lhand -13.289 27.81
lfingers 7.12502
lthumb 12.8146 57.3967
rfemur -35.31 -1.42237 14.3013
rtibia 31.2387
rfoot -2.65912 -9.07472
rtoes 0.729513
lfemur 2.74843 -1.59798 -31.1008
ltibia 22.2309
lfoot -18.4734 1.28125
ltoes -4.60065
150
root 2.45691 17.2199 1.75296 -5.11466 -37.3891 11.3322
lowerback 7.87514 -1.03085 -7.5781
upperback 0.00351146 -2.0272 1.00771
thorax -4.12464 -0.843516 5.5502
lowerneck -19.2055 -3.58023 -9.13441
upperneck 23.125 -3.43083 4.34282
head 10.8894 -1.87393 2.57646
rclavicle 5.12864e-014 3.18055e-015
rhumerus -41.5165 -22.3764 -69.7647
rradius 27.0076
rwrist 11.4273
rhand -14.5091 10.9335
rfingers 7.12502
rthumb 11.6382 -18.7233
lclavicle 5.12864e-014 3.18055e-015
lhumerus -24.3453 6.65767 83.6345
lradius 29.0751
lwrist -8.79823
lhand -13.8289 27.5805
lfingers 7.12502
lthumb 12.2941 57.1991
rfemur -34.6848 -0.999262 13.7291
rtibia 27.3219
rfoot -2.25191 -9.9177
rtoes 3.08905
lfemur 4.21213 -1.00699 -31.1451
ltibia 21.211
lfoot -18.6039 0.603867
ltoes -6.08921
151
root 2.3097 17.2009 1.93855 -4.87475 -37.1683 11.0092
lowerback 7.76171 -1.11983 -7.4033
upperback 0.122928 -2.1137 1.07496
thorax -3.9254 -0.901704 5.52386
lowerneck -17.8545 -3.51892 -9.54337
upperneck 21.9681 -3.35839 4.45599
head 10.216 -1.85773 2.69166
rclavicle -6.91771e-014 -2.22639e-014
rhumerus -41.3843 -23.0042 -69.689
rradius 26.8248
rwrist 12.0278
rhand -14.3632 11.0844
rfingers 7.12502
rthumb 11.7789 -18.5644
lclavicle -6.91771e-014 -2.22639e-014
lhumerus -23.9517 6.2396 83.6793
lradius 29.658
lwrist -8.47906
lhand -14.4951 27.4802
lfingers 7.12502
lthumb 11.6516 57.1362
rfemur -34.1786 -0.523822 13.6877
rtibia 23.5977
rfoot -2.17603 -10.9811
rtoes 0.711533
lfemur 5.61554 -0.980768 -30.7592
ltibia 20.0267
lfoot -18.2906 0.0457286
ltoes -5.65909
